Coordinates
version=1
nRows=7
nColumns=63
inDegrees=yes

Units are S.I. units (second, meters, Newtons, ...)
If the header above contains a line with 'inDegrees', this indicates whether rotational values are in degrees (yes) or radians (no).

endheader
time	pelvis_tilt	pelvis_list	pelvis_rotation	pelvis_tx	pelvis_ty	pelvis_tz	hip_flexion_r	hip_adduction_r	hip_rotation_r	knee_angle_r	knee_angle_r_beta	ankle_angle_r	subtalar_angle_r	mtp_angle_r	hip_flexion_l	hip_adduction_l	hip_rotation_l	knee_angle_l	knee_angle_l_beta	ankle_angle_l	subtalar_angle_l	mtp_angle_l	L5_S1_Flex_Ext	L5_S1_Lat_Bending	L5_S1_axial_rotation	L4_L5_Flex_Ext	L4_L5_Lat_Bending	L4_L5_axial_rotation	L3_L4_Flex_Ext	L3_L4_Lat_Bending	L3_L4_axial_rotation	L2_L3_Flex_Ext	L2_L3_Lat_Bending	L2_L3_axial_rotation	L1_L2_Flex_Ext	L1_L2_Lat_Bending	L1_L2_axial_rotation	L1_T12_Flex_Ext	L1_T12_Lat_Bending	L1_T12_axial_rotation	Abs_r3	Abs_r2	Abs_r1	Abs_t1	Abs_t2	neck_flexion	neck_bending	neck_rotation	arm_flex_r	arm_add_r	arm_rot_r	elbow_flex_r	pro_sup_r	wrist_flex_r	wrist_dev_r	arm_flex_l	arm_add_l	arm_rot_l	elbow_flex_l	pro_sup_l	wrist_flex_l	wrist_dev_l
      1.90243902	     -2.58952974	     -2.07877780	     90.69587145	     -0.08111414	      0.78647620	      0.66160257	      0.45815359	     -4.08647174	    -11.92676960	      7.72489233	      0.13482481	     29.07583693	     16.69795573	      0.00000000	     -0.47853304	      2.55609365	     -5.72935617	      4.72691198	      0.08250018	     23.72496581	      9.99780509	      0.00000000	     -0.11893977	     -0.97083439	     -0.45727849	     -0.22088305	     -1.29120974	     -0.48585840	     -0.19540615	     -2.36048674	     -0.48585840	     -0.13593627	     -2.36048674	     -0.40011868	     -0.11044747	     -1.97972549	     -0.37153878	     -0.06796219	     -1.50382247	     -0.34295887	     -0.84957490	    -10.98227280	     -2.54324579	      0.00000000	      0.00000000	     15.92346465	      7.19304908	    -11.18306038	     35.32988558	     -3.10407324	     18.85556804	    143.80366454	     89.29499564	      5.32166650	     20.97621910	     11.14371227	    -12.18558723	    162.12189376	      4.93636921	     11.97489795	     -2.61213860	     -1.72156842
      1.92682927	     -2.68780986	     -2.01238392	     90.40400651	     -0.08027067	      0.78670298	      0.66124475	      0.35217596	     -4.11579369	    -11.25110436	      7.43560072	      0.12977571	     29.15583844	     16.29878518	      0.00000000	     -0.65798624	      2.65588010	     -5.35675822	      4.63834522	      0.08095440	     23.29512109	      9.23094027	      0.00000000	     -0.12075867	     -0.99791666	     -0.40529185	     -0.22426092	     -1.32722916	     -0.43062259	     -0.19839441	     -2.42633457	     -0.43062259	     -0.13801508	     -2.42633457	     -0.35463037	     -0.11213650	     -2.03495165	     -0.32929963	     -0.06900150	     -1.54577291	     -0.30396889	     -0.86256708	    -11.28863284	     -2.25411166	      0.00000000	      0.00000000	     15.95737320	      7.40857955	    -11.65897627	     35.00028000	     -3.21195654	     19.44358226	    144.11324593	     89.25636389	      4.50500937	     20.59097469	     11.17021971	    -12.46209840	    159.45015436	      5.56798164	     11.92949645	     -2.34626643	     -1.60871022
      1.95121951	     -2.79162864	     -1.95462689	     90.32371949	     -0.07987267	      0.78694304	      0.66075926	      0.09756619	     -4.13667447	    -10.67941989	      6.91547735	      0.12069785	     29.04170527	     15.78527133	      0.00000000	     -0.82567419	      2.76767297	     -5.09135501	      4.54250601	      0.07928169	     22.88327610	      8.81577337	      0.00000000	     -0.11577929	     -1.01180236	     -0.39966873	     -0.21501372	     -1.34569714	     -0.42464802	     -0.19021379	     -2.46009626	     -0.42464802	     -0.13232415	     -2.46009626	     -0.34971014	     -0.10751265	     -2.06326737	     -0.32473084	     -0.06615629	     -1.56728186	     -0.29975155	     -0.82699989	    -11.44571066	     -2.22283756	      0.00000000	      0.00000000	     15.80465125	      7.48376007	    -11.42138144	     34.74760306	     -3.10387127	     20.03896897	    144.18892266	     89.20792751	      4.43170328	     20.04870679	     11.25802634	    -12.63791240	    158.65125046	      6.20403381	      9.39099197	     -2.13247879	     -1.43742421
      1.97560976	     -2.88351193	     -1.91763664	     90.17344739	     -0.07973776	      0.78713318	      0.66029224	     -0.18037794	     -4.15787846	     -9.98873968	      6.34361836	      0.11071703	     28.67059978	     15.17476522	      0.00000000	     -0.99552973	      2.90630419	     -4.69074118	      4.37611437	      0.07637760	     22.45148478	      8.08075951	      0.00000000	     -0.10660130	     -1.01628786	     -0.36541230	     -0.19796927	     -1.35166286	     -0.38825057	     -0.17513527	     -2.47100231	     -0.38825057	     -0.12183462	     -2.47100231	     -0.31973576	     -0.09898996	     -2.07241421	     -0.29689749	     -0.06091198	     -1.57422990	     -0.27405922	     -0.76144240	    -11.49645156	     -2.03231359	      0.00000000	      0.00000000	     15.60564298	      7.37758654	    -11.23352670	     34.60651684	     -3.07595749	     20.55222554	    144.26000970	     89.14555634	      4.55352180	     19.54421641	     11.51537489	    -12.84672884	    155.07519664	      7.02440120	     10.83618425	     -2.16680453	     -1.39909000
      2.00000000	     -2.92556747	     -1.88975776	     89.93142968	     -0.07969917	      0.78716843	      0.66020079	     -0.29191892	     -4.19380055	     -9.73105755	      6.13048679	      0.10699718	     28.36551970	     15.10661202	      0.00000000	     -1.13187518	      3.04452021	     -3.51337973	      4.17400933	      0.07285021	     22.03826860	      6.07940683	      0.00000000	     -0.10554604	     -1.00879782	     -0.31896999	     -0.19600956	     -1.34170110	     -0.33890561	     -0.17340160	     -2.45279102	     -0.33890561	     -0.12062857	     -2.45279102	     -0.27909874	     -0.09801006	     -2.05714052	     -0.25916311	     -0.06030901	     -1.56262783	     -0.23922749	     -0.75390484	    -11.41172272	     -1.77401537	      0.00000000	      0.00000000	     15.63544753	      7.35818798	    -10.74100126	     34.71793525	     -3.13555041	     21.07130456	    144.33604073	     89.09491215	      4.73875870	     19.15045751	     11.88282318	    -12.91214473	    153.95096893	      7.75079052	      8.90653989	     -2.61591497	     -1.37399310
      2.02439024	     -3.00746263	     -1.87023117	     89.74746010	     -0.07955237	      0.78714888	      0.66002731	     -0.53979113	     -4.15428491	     -7.88451254	      5.66325454	      0.09884244	     27.63689904	     12.87575733	      0.00000000	     -1.21022207	      3.15030940	     -3.33796743	      4.07555207	      0.07113180	     21.99678462	      5.65066918	      0.00000000	     -0.10199333	     -1.01015279	     -0.26720687	     -0.18941182	     -1.34350321	     -0.28390730	     -0.16756485	     -2.45608550	     -0.28390730	     -0.11656818	     -2.45608550	     -0.23380601	     -0.09471101	     -2.05990357	     -0.21710558	     -0.05827899	     -1.56472667	     -0.20040515	     -0.72852817	    -11.42705041	     -1.48612446	      0.00000000	      0.00000000	     15.59578120	      7.10694886	    -10.69032842	     34.72522891	     -3.16381464	     21.35027611	    144.47450835	     89.08440551	      4.89227089	     18.95255631	     12.33183692	    -13.30773806	    148.30815905	      8.74592426	     12.84945473	     -3.08565469	     -1.55338043
      2.04878049	     -3.05808709	     -1.86167585	     89.70773268	     -0.07966912	      0.78710238	      0.66011270	     -0.62292214	     -4.25301536	     -9.15029328	      5.63130974	      0.09828490	     27.42324475	     14.47080562	      0.00000000	     -1.22781206	      3.20739623	     -3.62987992	      4.04429218	      0.07058621	     22.07233055	      6.03892062	      0.00000000	     -0.09934160	     -1.00495603	     -0.26992437	     -0.18448729	     -1.33659152	     -0.28679464	     -0.16320832	     -2.44345009	     -0.28679464	     -0.11353752	     -2.44345009	     -0.23618382	     -0.09224861	     -2.04930633	     -0.21931355	     -0.05676379	     -1.55667689	     -0.20244327	     -0.70958715	    -11.36826358	     -1.50123834	      0.00000000	      0.00000000	     15.53218467	      7.08821445	    -10.11927895	     34.83467711	     -3.23277392	     21.65222791	    144.34170633	     89.06704502	      5.01534761	     18.32360408	     12.70814961	    -13.02535076	    153.52717311	      8.74577014	      8.20682823	     -3.60673176	     -1.72298275
